<svg version="1.1" id="Слой_1" xmlns="http://www.w3.org/2000/svg" x="0" y="0" viewBox="0 0 100 100" xml:space="preserve"><style>.st0{fill:#fff}</style><circle class="st0" cx="95.4" cy="7.7" r="3.5"/><path class="st0" d="M88.3 85.7H12.1c-.6 0-1-.4-1-1V16.9c0-.6.4-1 1-1s1 .4 1 1v66.8h75.2c.6 0 1 .4 1 1s-.5 1-1 1z"/><path d="M2.1 95.8c-.2 0-.5-.1-.7-.3-.4-.4-.4-1 0-1.4l28.5-30.2c.3-.3.8-.4 1.2-.2l6.4 3.2 10.9-33.5c.1-.3.3-.5.6-.6.3-.1.6-.1.8 0l13.4 6.8L87.6 14c.4-.4 1-.4 1.4 0 .4.4.4 1 0 1.4L64.1 41.6c-.3.3-.8.4-1.2.2l-13-6.6L39 68.6c-.1.3-.3.5-.6.6s-.6.1-.8 0l-6.7-3.4-28 29.7c-.2.2-.5.3-.8.3z" fill="#d9e7af"/></svg>