<svg version="1.1" id="Слой_1" xmlns="http://www.w3.org/2000/svg" x="0" y="0" viewBox="0 0 100 100" xml:space="preserve"><style>.st0{fill:#d9e7af}</style><path class="st0" d="M64.9 73.4H35.1c-.3 0-.7-.2-.8-.5L19.4 47.2c-.2-.3-.2-.7 0-1l14.9-25.8c.2-.3.5-.5.8-.5h29.7c.3 0 .7.2.8.5l14.9 25.8c.2.3.2.7 0 1L65.7 72.9c-.2.3-.5.5-.8.5zm-29.2-1.9h28.6l14.3-24.8-14.3-24.8H35.7L21.4 46.7l14.3 24.8z"/><path d="M99.2 46.9L81.7 16.6c.5-.6.8-1.4.8-2.2 0-1.9-1.5-3.4-3.4-3.4s-3.4 1.5-3.4 3.4 1.5 3.4 3.4 3.4c.3 0 .6-.1.9-.1l17.1 29.7-23.8 41.3c-.3.5-.1 1.1.4 1.3.2.1.3.1.5.1.3 0 .7-.2.8-.5l24.2-41.8c.1-.2.1-.6 0-.9zM61.1 85.7c-1.6 0-2.9 1.1-3.3 2.5H26.4L2.5 46.9c-.3-.5-.9-.6-1.3-.4-.5.3-.6.9-.4 1.3L25 89.7c.2.3.5.5.8.5h32.1c.4 1.3 1.7 2.3 3.2 2.3 1.9 0 3.4-1.5 3.4-3.4s-1.5-3.4-3.4-3.4zM7.3 40.6c1.9 0 3.4-1.5 3.4-3.4 0-.8-.3-1.6-.8-2.2L26.4 6.5h47.8c.5 0 1-.4 1-1s-.4-1-1-1H25.8c-.3 0-.7.2-.8.5L8.3 34c-.3-.1-.6-.2-1-.2-1.9 0-3.4 1.5-3.4 3.4s1.6 3.4 3.4 3.4z" fill="#fff"/><path class="st0" d="M49.7 30.6l-4.8 4.8c-.3.3-.1.7.3.7h9.6c.4 0 .6-.4.3-.7l-4.8-4.8c-.2-.2-.4-.2-.6 0z"/><path class="st0" d="M50 63.3c-.6 0-1-.4-1-1V32.1c0-.6.4-1 1-1s1 .4 1 1v30.2c0 .6-.4 1-1 1z"/></svg>