<svg version="1.1" id="Слой_1" xmlns="http://www.w3.org/2000/svg" x="0" y="0" viewBox="0 0 100 100" xml:space="preserve"><style>.st0{fill:#dde7b1}.st1{fill:#fff}</style><path class="st0" d="M72.3 49.3c0 .5-.4.9-.9.9H50c-.5 0-.9-.4-.9-.9s.4-.9.9-.9h21.4c.5 0 .9.4.9.9z"/><path class="st0" d="M50.9 18.4v30c0 .5-.4.9-.9.9s-.9-.4-.9-.9v-30c0-.5.4-.9.9-.9s.9.4.9.9zM16.8 69.9c0 .2-.1.5-.3.6l-4 4c-.4.4-.9.4-1.3 0s-.4-.9 0-1.3l4-4c.4-.4.9-.4 1.3 0 .3.3.3.5.3.7zm16.3 14.8c0 .1 0 .3-.1.4l-2.6 5.1c-.2.4-.8.6-1.2.4-.4-.2-.6-.8-.4-1.2l2.6-5.1c.2-.4.8-.6 1.2-.4.3.2.5.5.5.8zM16.8 28.3c0 .2-.1.5-.3.6-.4.4-.9.4-1.3 0l-4-4c-.4-.4-.4-.9 0-1.3s.9-.4 1.3 0l4 4c.3.3.3.5.3.7zm16.3-14.8c0 .3-.2.7-.5.8-.4.2-1 .1-1.2-.4l-2.6-5.1c-.2-.4 0-1 .4-1.2s1-.1 1.2.4l2.6 5.1c.1.2.1.3.1.4zM88.4 74c0 .2-.1.5-.3.6-.4.4-.9.4-1.3 0l-4-4c-.4-.4-.4-.9 0-1.3s.9-.4 1.3 0l4 4c.3.2.3.4.3.7zM70.3 89.8c0 .3-.2.7-.5.8-.4.2-1 .1-1.2-.4L66 85.1c-.2-.4 0-1 .4-1.2s1-.1 1.2.4l2.6 5.1c0 .1.1.3.1.4zm18.1-65.5c0 .2-.1.5-.3.6l-4 4c-.4.4-.9.4-1.3 0s-.4-.9 0-1.3l4-4c.4-.4.9-.4 1.3 0 .3.2.3.5.3.7zM70.3 8.5c0 .1 0 .3-.1.4L67.6 14c-.2.4-.8.6-1.2.4-.4-.2-.6-.8-.4-1.2L68.5 8c.2-.4.8-.6 1.2-.4.4.2.6.5.6.9zM50.9 4.2v5.7c0 .5-.4.9-.9.9s-.9-.4-.9-.9V4.2c0-.5.4-.9.9-.9.5-.1.9.4.9.9zm0 84.6v5.7c0 .5-.4.9-.9.9s-.9-.4-.9-.9v-5.7c0-.5.4-.9.9-.9s.9.4.9.9z"/><circle class="st1" cx="50" cy="49.3" r="3.2"/><path class="st1" d="M5.1 42.3h-.2c-.5-.1-.9-.6-.8-1.2C7.9 18.7 27.2 2.5 50 2.5c20.8 0 39.2 14 44.8 34 .1.5-.2 1.1-.7 1.2-.5.1-1.1-.2-1.2-.7C87.5 17.8 69.9 4.5 50 4.5 28.2 4.5 9.7 20 6.1 41.4c-.1.5-.5.9-1 .9zM50 96.2c-22.8 0-42.6-17-46-39.5-.1-.5.3-1.1.8-1.1.5-.1 1.1.3 1.1.8 3.2 21.6 22.2 37.8 44 37.8 21.6 0 40-15.4 43.8-36.6.1-.5.6-.9 1.2-.8.5.1.9.6.8 1.2C91.8 80.1 72.5 96.2 50 96.2z"/><path class="st0" d="M93.8 55.5l-4.6 4.6c-.2.2-.1.7.3.7h9.1c.4 0 .5-.4.3-.7l-4.6-4.6c-.1-.1-.3-.1-.5 0zM1.1 38.9l4.4 4.4c.2.2.5.2.7 0l4.4-4.4c.3-.3.1-.8-.3-.8H1.4c-.4 0-.6.5-.3.8z"/></svg>