<svg version="1.1" id="Слой_1" xmlns="http://www.w3.org/2000/svg" x="0" y="0" viewBox="0 0 100 100" xml:space="preserve"><style>.st0{fill:#fff}.st1{fill:#dde7b1}</style><path class="st0" d="M31.1 97H19.3c-.6 0-1-.4-1-1V83.2c0-.3-.5-8.8 4.4-14 2.4-2.5 5.6-3.8 9.6-3.8h10c.9-1.3 3.5-4.6 7.5-5.7 3.6-1 11.4-4.9 14.9-12.7.2-.5.8-.7 1.3-.5s.7.8.5 1.3c-4.8 10.5-15.8 13.6-16.2 13.8-4.1 1.1-6.6 5.2-6.6 5.3-.2.3-.5.5-.9.5H32.4c-3.4 0-6.2 1.1-8.2 3.2-4.3 4.6-3.9 12.5-3.9 12.6v11.9h9.8V82.4c0-2.1.9-5.6 6.6-5.6.4 0 .8.2.9.6.4 1 4.4 9.5 11.8 11 11 2.1 29.8-7.1 40.3-24.4 13.1-26.2 3.7-44.3 3.6-44.5l-.2-.2c-4.7-6.6-11-8-15.4-8-10.5 0-14.8 10.2-15.1 12.1-.1.5-.5.8-1 .8-4 0-6.8-1-8.3-2.9-1.5-1.8-1.2-3.9-1.2-4.4v-10h-7.7v13.8C46.8 32.5 59.5 32.2 60 32.2h7.4c.5 0 .9.4 1 .8.3 1.7.4 3.4.4 5 0 .6-.5 1-1 1-.6 0-1-.5-1-1 0-1.2-.1-2.5-.2-3.8h-6.5c-.1 0-15 .4-17.5-13.3v-15c0-.6.4-1 1-1h9.7c.6 0 1 .4 1 1v11.4c0 .1-.3 1.6.8 2.9 1 1.3 3.1 2 6 2.1 1.1-3.4 6-12.9 16.9-12.9 4.9 0 11.8 1.5 17 8.8l.1.2C97 20.9 104.2 40 91.6 65 80.2 83.6 60.7 92.7 49.1 90.4c-7.6-1.5-11.7-8.9-13-11.5-3.5.2-4 2.1-4 3.6V96c0 .6-.4 1-1 1z"/><path class="st1" d="M43.1 52.8c-.4 0-.7-.2-.9-.5L38 45l-2.5 3.5c-.2.3-.5.4-.8.4H1.8c-.6 0-1-.4-1-1s.4-1 1-1h32.3l2.1-3.1c.4-.6 1.1-.9 1.8-.9s1.3.4 1.7 1l3.2 5.5 3.8-10.5c.3-.7.9-1.3 1.7-1.4.8-.1 1.6.3 2 1l1.9 3.1 1.9-2.3c.4-.5 1.1-.7 1.6-.8.7 0 1.2.3 1.6.8l1.6 2h16c.6 0 1 .4 1 1s-.4 1-1 1H58.5c-.3 0-.6-.1-.8-.4l-1.9-2.4h-.1L52.9 44c-.2.3-.5.4-.8.4s-.6-.2-.8-.5l-2.6-4.3h-.1l-4.5 12.6c-.2.3-.5.5-1 .6.1 0 0 0 0 0z"/><circle class="st0" cx="51.1" cy="77.9" r="3.5"/><circle class="st0" cx="62" cy="80.1" r="2.8"/><circle class="st1" cx="61.4" cy="69.8" r="2.8"/></svg>