<svg version="1.1" id="Слой_1" xmlns="http://www.w3.org/2000/svg" x="0" y="0" viewBox="0 0 100 100" xml:space="preserve"><style>.st0{fill:#fff}.st1{fill:#d9e7af}</style><path class="st0" d="M56.5 74.3c-.3 0-.7-.2-.9-.5-.3-.5-.1-1.1.3-1.4 14.2-8.5 21.2-16.1 21.2-23.1.1-9.6-13.1-17.8-27.1-26.4-3.2-2-6.6-4-9.8-6.1L20.7 4.2c-.5-.3-.6-.9-.3-1.4.3-.5.9-.6 1.4-.3L41.4 15c3.2 2.1 6.5 4.1 9.7 6.1C65.6 30 79.3 38.5 79.2 49.3c-.1 7.8-7.3 15.9-22.2 24.8-.2.2-.4.2-.5.2zM21 96c-.3 0-.7-.2-.9-.5-.3-.5-.1-1.1.3-1.4l28.7-17.6c.5-.3 1.1-.1 1.4.3.3.5.1 1.1-.3 1.4L21.5 95.9c-.1.1-.3.1-.5.1z"/><path class="st0" d="M50.2 22.1c-.3 0-.7-.2-.9-.5-.3-.5-.1-1.1.3-1.4 3.3-2 6.2-3.9 9.2-5.8L78.4 1.9c.5-.3 1.1-.2 1.4.3s.2 1.1-.3 1.4L59.9 16.1c-2.9 2-5.9 3.8-9.2 5.9-.1.1-.3.1-.5.1zm28 73.8c-.2 0-.4 0-.5-.1L42.5 74.2c-14.8-8.9-22.1-17-22.2-24.7-.1-9.7 10.8-17.4 22-24.5.5-.3 1.1-.2 1.4.3.3.5.2 1.1-.3 1.4-10.7 6.8-21.2 14.2-21.1 22.8.1 7 7 14.5 21.2 23L78.7 94c.5.3.6.9.3 1.4-.2.3-.5.5-.8.5z"/><path class="st1" d="M34.8 47.4h-.2c-.5-.1-.9-.6-.8-1.2 1.3-7.8 8.1-13.5 16-13.5 7.3 0 13.7 4.9 15.7 11.9.1.5-.2 1.1-.7 1.2-.5.1-1.1-.2-1.2-.7-1.7-6.1-7.4-10.4-13.7-10.4-7 0-12.9 5-14 11.8-.2.6-.6.9-1.1.9zm15 18.1c-8 0-14.9-5.9-16.1-13.8-.1-.5.3-1.1.8-1.1.5-.1 1.1.3 1.1.8 1 6.9 7.1 12.1 14.1 12.1 6.9 0 12.8-4.9 14-11.7.1-.5.6-.9 1.2-.8.5.1.9.6.8 1.2-1.3 7.6-8 13.3-15.9 13.3z"/><path class="st1" d="M64.5 48.1L59.6 53c-.3.3-.1.7.3.7h9.9c.4 0 .6-.5.3-.7l-4.9-4.9c-.2-.2-.5-.2-.7 0zM30 43.6l4.8 4.8c.2.2.5.2.7 0l4.8-4.8c.3-.3.1-.9-.4-.9h-9.5c-.5.1-.8.6-.4.9zM58.7 88H41.3c-.6 0-1-.4-1-1s.4-1 1-1h17.3c.6 0 1 .4 1 1s-.4 1-.9 1zm7.5 5.4H33.8c-.6 0-1-.4-1-1s.4-1 1-1h32.5c.6 0 1 .4 1 1s-.5 1-1.1 1zm-7.5-79.5H41.3c-.6 0-1-.4-1-1s.4-1 1-1h17.3c.6 0 1 .4 1 1s-.4 1-.9 1zm7.5-5.4H33.8c-.6 0-1-.4-1-1s.4-1 1-1h32.5c.6 0 1 .4 1 1s-.5 1-1.1 1z"/></svg>