<svg version="1.1" id="Слой_1" xmlns="http://www.w3.org/2000/svg" x="0" y="0" viewBox="0 0 100 100" xml:space="preserve"><style>.st0{fill:#d9e7af}.st1{fill:#fff}</style><path class="st0" d="M50 9.5c-.5 0-1-.4-1-1v-6c0-.5.4-1 1-1s1 .4 1 1v6c0 .5-.5 1-1 1zM20.1 23c-.1 0-.3-.1-.4-.2l-4.3-4.1c-.4-.4-.4-1 0-1.4s1-.4 1.4 0l4.3 4.1c.4.4.4 1 0 1.4-.3.2-.7.3-1 .2zm65.5 60.5c-.1 0-.3-.1-.4-.2l-4.3-4.1c-.4-.4-.4-1 0-1.4s1-.4 1.4 0l4.3 4.1c.4.4.4 1 0 1.4-.3.2-.7.3-1 .2zm-8.4-64.4c0-.1.1-.3.2-.4l4.1-4.3c.4-.4 1-.4 1.4 0s.4 1 0 1.4l-4.1 4.3c-.4.4-1 .4-1.4 0-.2-.3-.3-.6-.2-1zM16.6 84.7c0-.1.1-.3.2-.4l4.1-4.3c.4-.4 1-.4 1.4 0s.4 1 0 1.4l-4.1 4.3c-.4.4-1 .4-1.4 0-.2-.3-.3-.7-.2-1zM50 98.5c-.5 0-1-.4-1-1v-6c0-.5.4-1 1-1s1 .4 1 1v6c0 .5-.5 1-1 1zM97.5 51h-6c-.5 0-1-.4-1-1 0-.5.4-1 1-1h6c.5 0 1 .4 1 1 0 .5-.5 1-1 1zm-89 0h-6c-.5 0-1-.4-1-1 0-.5.4-1 1-1h6c.5 0 1 .4 1 1 0 .5-.5 1-1 1z"/><path class="st1" d="M50 91.6C27.1 91.6 8.4 72.9 8.4 50S27.1 8.4 50 8.4 91.6 27.1 91.6 50 72.9 91.6 50 91.6zm0-81.1c-21.8 0-39.5 17.7-39.5 39.5S28.2 89.5 50 89.5 89.5 71.8 89.5 50 71.8 10.5 50 10.5z"/><path class="st0" d="M39.6 26.2c.1 0 .3 0 .4-.1.6-.2.9-.9.6-1.5L39.2 21c-.2-.6-.9-.9-1.5-.6-.3.1-.5.3-.6.6s-.1.6 0 .9l1.4 3.6c.3.4.7.7 1.1.7zM25.5 39.3l-3.6-1.5c-.3-.1-.6-.1-.9 0s-.5.3-.6.6-.1.6 0 .9c.1.3.3.5.6.6l3.6 1.5c.1.1.3.1.4.1h.1c.4 0 .8-.3.9-.7.1-.3.1-.6 0-.9 0-.3-.2-.5-.5-.6zm-.4 1.6zM80 60.5c-.1-.3-.3-.5-.6-.6l-3.6-1.5c-.3-.1-.6-.1-.9 0s-.5.3-.6.6-.1.6 0 .9c.1.3.3.5.6.6l3.6 1.5c.1.1.3.1.4.1h.1c.4 0 .8-.3.9-.7.2-.3.2-.6.1-.9zM58.7 25.9c.1.1.3.1.4.1s.3 0 .4-.1c.3-.1.5-.3.6-.6l1.5-3.6c.1-.3.1-.6 0-.9s-.3-.5-.6-.6-.6-.1-.9 0c-.3.1-.5.3-.6.6L58 24.4v.6c.1.4.3.8.7.9zm-.2-1zM40.3 74.1c-.3-.1-.6-.1-.9 0-.3.1-.5.3-.6.6l-1.5 3.6c-.1.2-.1.3-.1.5 0 .4.3.8.7.9.1.1.3.1.4.1.1 0 .3 0 .4-.1.3-.1.5-.3.6-.6l1.5-3.6c.1-.3.1-.6 0-.9 0-.2-.2-.4-.5-.5zm20.3.4c-.2-.6-.9-.9-1.5-.6-.3.1-.5.3-.6.6-.1.3-.1.6 0 .9l1.4 3.6c.1.3.3.5.6.6.1.1.3.1.4.1.1 0 .3 0 .4-.1.3-.1.5-.3.6-.6.1-.3.1-.6 0-.9l-1.3-3.6zm14.3-33.4l3.6-1.4c.3-.1.5-.3.6-.6s.1-.6 0-.9c-.2-.6-.9-.9-1.5-.6L74.1 39c-.3.1-.5.3-.6.6s-.1.6 0 .9c.2.4.6.7 1 .7.1 0 .3-.1.4-.1zM24.3 58.9l-3.6 1.4c-.6.2-.9.9-.6 1.5.2.4.6.7 1 .7.1 0 .3 0 .4-.1l3.6-1.4c.6-.2.9-.9.6-1.5-.2-.6-.9-.8-1.4-.6z"/><path class="st1" d="M50 76.6c-3.6 0-7.1-.7-10.5-2.2-6.5-2.8-11.6-8-14.2-14.6s-2.5-13.8.3-20.3 8-11.6 14.6-14.2c6.6-2.6 13.8-2.5 20.3.3s11.6 8 14.2 14.6 2.5 13.8-.3 20.3-8 11.6-14.6 14.2c-3.1 1.3-6.5 1.9-9.8 1.9zm0-51.2c-3.1 0-6.2.6-9.1 1.8-6.1 2.4-10.9 7.1-13.5 13.1s-2.7 12.7-.3 18.8S34.2 70 40.2 72.6s12.7 2.7 18.8.3c6.1-2.4 10.9-7.1 13.5-13.1s2.7-12.7.3-18.8c-2.4-6.1-7.1-10.9-13.1-13.5-3.1-1.4-6.4-2.1-9.7-2.1z"/><circle class="st0" cx="50" cy="50" r="3.7"/></svg>