<svg version="1.1" id="Слой_1" xmlns="http://www.w3.org/2000/svg" x="0" y="0" viewBox="0 0 100 100" xml:space="preserve"><style>.st0{fill:#fff}.st1{fill:#d9e7af}</style><path class="st0" d="M42.3 87.6c-11 0-21.4-4.3-29.2-12.1C5.3 67.6 1 57.3 1 46.2S5.3 24.8 13.1 17C20.9 9.1 31.3 4.8 42.3 4.8s21.4 4.3 29.2 12.1c10.4 10.4 14.5 25.7 10.7 40-.1.5-.7.9-1.2.7-.5-.1-.9-.7-.7-1.2 3.6-13.6-.3-28.1-10.2-38-7.4-7.5-17.2-11.6-27.8-11.6-10.5 0-20.4 4.1-27.8 11.5C7.1 25.8 3 35.7 3 46.2S7.1 66.6 14.5 74s17.3 11.5 27.8 11.5S62.7 81.4 70.1 74c.4-.4 1-.4 1.4 0s.4 1 0 1.4c-7.7 7.9-18.1 12.2-29.2 12.2z"/><path class="st1" d="M42.3 80.1c-18.7 0-33.9-15.2-33.9-33.9s15.2-33.9 33.9-33.9 33.9 15.2 33.9 33.9S61 80.1 42.3 80.1zm0-65.8c-17.6 0-31.9 14.3-31.9 31.9s14.3 31.9 31.9 31.9 31.9-14.3 31.9-31.9-14.3-31.9-31.9-31.9z"/><circle class="st1" cx="38.3" cy="60.2" r="3.5"/><circle class="st0" cx="92.6" cy="63.9" r="3.5"/><path class="st1" d="M96.9 71.7H81.3c-.3 0-.6-.1-.7-.3l-9.3-10.3c-.4-.4-.3-1 .1-1.4s1-.3 1.4.1l9 10H97c.6 0 1 .4 1 1s-.5.9-1.1.9zm-31.2-3c-.3 0-.6-.1-.8-.4L57.7 58l-7.4 9.5c-.2.2-.5.4-.8.4H34.8c-.6 0-1-.4-1-1s.4-1 1-1h14.1l8-10.1c.2-.2.5-.4.8-.4s.6.2.8.4l8 11.4c.3.5.2 1.1-.2 1.4-.2 0-.4.1-.6.1z"/></svg>