<svg version="1.1" id="Слой_1" xmlns="http://www.w3.org/2000/svg" x="0" y="0" viewBox="0 0 100 100" xml:space="preserve"><style>.st0{fill:#fff}</style><path class="st0" d="M50 96.3C24.5 96.3 3.7 75.5 3.7 50S24.5 3.7 50 3.7 96.3 24.5 96.3 50 75.5 96.3 50 96.3zm0-90.6C25.6 5.7 5.7 25.6 5.7 50S25.6 94.3 50 94.3 94.3 74.4 94.3 50 74.4 5.7 50 5.7z"/><path class="st0" d="M50 84.8c-10.8 0-21.5-5-28.3-14.4-7.3-10.1-8.6-23.3-3.5-34.7.2-.5.8-.7 1.3-.5.5.2.7.8.5 1.3-4.8 10.7-3.5 23.2 3.3 32.7 10.6 14.7 31.2 18 45.9 7.4s18-31.2 7.4-45.9-31.2-18-45.9-7.4c-.4.3-1.1.2-1.4-.2-.3-.4-.2-1.1.2-1.4C45.2 10.5 67 14 78.3 29.6 89.5 45.2 86 67 70.4 78.3c-6.2 4.4-13.3 6.5-20.4 6.5z"/><path class="st0" d="M73.8 61.5c-.1 0-.3 0-.4-.1-.5-.2-.7-.8-.5-1.3 3.6-8.1 2.5-17.6-2.7-24.8-4.5-6.2-11.6-9.9-19.3-10.2-.6 0-1-.5-1-1 0-.6.5-1 1-1 8.3.3 15.9 4.3 20.8 11 5.7 7.7 6.8 18 2.9 26.8-.1.3-.4.6-.8.6zM50.1 76.9c-1.4 0-2.8-.1-4.2-.3-7.1-1.1-13.4-4.9-17.6-10.7-2.8-3.8-4.5-8.3-5-12.9-1.1-9.6 3.1-19.1 10.8-24.8l1.2 1.6c-7.2 5.3-11 14.1-10 22.9.5 4.3 2.1 8.4 4.7 11.9 3.9 5.4 9.7 8.9 16.3 9.9 6.6 1 13.2-.6 18.6-4.5l1.2 1.6c-4.8 3.6-10.3 5.3-16 5.3z"/><path class="st0" d="M63.9 63c-.2 0-.4-.1-.6-.2-.4-.3-.5-1-.2-1.4 3.9-4.9 4.9-11.5 2.6-17.3-1.7-4.3-5-7.8-9.3-9.6-4.3-1.9-9-2-13.4-.3-.5.2-1.1-.1-1.3-.6-.2-.5.1-1.1.6-1.3 4.8-1.9 10.1-1.8 14.9.3 4.8 2.1 8.4 5.9 10.3 10.7 2.5 6.5 1.4 13.8-2.9 19.3-.1.2-.4.4-.7.4zm-14.4 6.9c-3.8 0-7.6-1.1-10.9-3.3-3.3-2.2-5.8-5.4-7.3-9.1-1.1-2.7-1.5-5.5-1.3-8.4 0-.6.5-1 1.1-.9.6 0 1 .5.9 1.1-.2 2.6.2 5.1 1.2 7.5 1.3 3.3 3.6 6.1 6.5 8.1 4.8 3.2 10.8 3.9 16.1 1.8.5-.2 1.1.1 1.3.6.2.5-.1 1.1-.6 1.3-2.2.9-4.6 1.3-7 1.3z"/><path d="M82.9 96.1c-.3 0-.6-.1-.8-.4L16.2 5.3c-.3-.4-.2-1.1.2-1.4.4-.3 1.1-.2 1.4.2l65.9 90.4c.3.4.2 1.1-.2 1.4-.2.2-.4.2-.6.2z" fill="#d9e7af"/></svg>