<svg version="1.1" id="Слой_1" xmlns="http://www.w3.org/2000/svg" x="0" y="0" viewBox="0 0 100 100" xml:space="preserve"><style>.st0{fill:#fff}</style><path class="st0" d="M50 96.2C24.5 96.2 3.8 75.5 3.8 50 3.8 24.5 24.5 3.8 50 3.8S96.2 24.5 96.2 50c0 25.5-20.7 46.2-46.2 46.2zm0-90.4C25.6 5.8 5.8 25.6 5.8 50S25.6 94.2 50 94.2 94.2 74.4 94.2 50 74.4 5.8 50 5.8z"/><path class="st0" d="M50 84.7c-19.1 0-34.7-15.6-34.7-34.7S30.9 15.3 50 15.3 84.7 30.9 84.7 50 69.1 84.7 50 84.7zm0-67.4C32 17.3 17.3 32 17.3 50 17.3 68 32 82.7 50 82.7S82.7 68 82.7 50C82.7 32 68 17.3 50 17.3z"/><path d="M50 65.6c-5.7 0-10.4-4.7-10.4-10.4 0-5.4 9.2-19.7 9.6-20.3.4-.6 1.3-.6 1.7 0 .4.6 9.6 14.9 9.6 20.3-.1 5.7-4.8 10.4-10.5 10.4zm0-28.3c-2.9 4.7-8.4 14.3-8.4 17.9 0 4.6 3.8 8.4 8.4 8.4s8.4-3.8 8.4-8.4c0-3.7-5.5-13.2-8.4-17.9zm33.2 12.5l-5.8 5.8c-.3.3-.1.9.4.9h11.6c.4 0 .7-.5.4-.9L84 49.8c-.3-.2-.6-.2-.8 0zm-72.9-5.2l5.6 5.6c.2.2.6.2.8 0l5.6-5.6c.4-.4.1-1-.4-1H10.7c-.5 0-.8.6-.4 1z" fill="#d9e7af"/></svg>