<svg version="1.1" id="Слой_1" xmlns="http://www.w3.org/2000/svg" x="0" y="0" viewBox="0 0 100 100" xml:space="preserve"><style>.st1{fill:#fff}</style><path d="M59.5 45.3c-.3-.1-.6-.4-.7-.8l-5.6-18.3c-.2-.5.2-1.2.8-1.4.6-.2 1.3.2 1.5.8L61 43.9c.2.6-.2 1.3-.8 1.5-.2 0-.5 0-.7-.1zM25.4 65.4c-.5 0-1-.3-1.1-.8-.2-.6.1-1.3.7-1.5 1.2-.4 13.5-5 13.7-5.1.6-.2 1.3.1 1.5.7.2.6-.1 1.3-.7 1.5-.5.2-12.5 4.7-13.7 5.1-.1.1-.3.1-.4.1zm53.2 6.1c-.3 0-.5 0-.8-.1-2.6-1.5-21.9-10.7-22.1-10.8-.6-.3-.8-1-.6-1.6.3-.6 1-.8 1.6-.6.8.4 19.5 9.4 22.2 10.9.6.3.8 1 .4 1.6-.1.4-.4.6-.7.6z" fill="#d9e7af"/><path class="st1" d="M51.6 24c-.7 0-1.4-.1-2.2-.4-3.3-1.2-5-4.8-3.8-8.1 1.2-3.3 4.8-5 8.1-3.8 3.3 1.2 5 4.8 3.8 8.1-.8 2.6-3.3 4.2-5.9 4.2zm0-10.7c-.6 0-1.3.1-1.8.4-1.1.5-1.9 1.4-2.2 2.5-.4 1.1-.3 2.3.2 3.3.5 1.1 1.4 1.9 2.5 2.2 1.1.4 2.3.3 3.3-.2 1.1-.5 1.9-1.4 2.2-2.5.4-1.1.3-2.3-.2-3.3-.5-1.1-1.4-1.9-2.5-2.2-.5-.1-1-.2-1.5-.2zm38.8 73.4c-5.2 0-9.5-4.3-9.5-9.5s4.3-9.5 9.5-9.5 9.5 4.3 9.5 9.5-4.3 9.5-9.5 9.5zm0-17c-4.1 0-7.5 3.4-7.5 7.5s3.4 7.5 7.5 7.5 7.5-3.4 7.5-7.5c0-4.2-3.4-7.5-7.5-7.5zm-79.1 8.9C5.1 78.6.1 73.6.1 67.4s5-11.2 11.2-11.2 11.2 5 11.2 11.2-5 11.2-11.2 11.2zm0-20.3c-5.1 0-9.2 4.1-9.2 9.2s4.1 9.2 9.2 9.2 9.2-4.1 9.2-9.2-4.1-9.2-9.2-9.2zm35.5-.6c-4 0-7.3-3.3-7.3-7.3s3.3-7.3 7.3-7.3c3.7 0 12.8 5.8 13.8 6.5.3.2.5.5.5.8s-.2.7-.5.8c-1 .7-10.1 6.5-13.8 6.5zm0-12.6c-2.9 0-5.3 2.4-5.3 5.3s2.4 5.3 5.3 5.3c2.3 0 8.1-3.3 11.4-5.3-3.3-2-9.1-5.3-11.4-5.3z"/><path class="st1" d="M73.3 57.7c-3.7 0-12.8-5.8-13.8-6.5-.3-.2-.5-.5-.5-.8s.2-.7.5-.8c1-.7 10.1-6.5 13.8-6.5 4 0 7.3 3.3 7.3 7.3s-3.3 7.3-7.3 7.3zm-11.4-7.3c3.3 2 9.1 5.3 11.4 5.3 2.9 0 5.3-2.4 5.3-5.3s-2.4-5.3-5.3-5.3c-2.2 0-8.1 3.3-11.4 5.3z"/></svg>